<svg version="1" xmlns="http://www.w3.org/2000/svg" width="682.667" height="682.667" viewBox="0 0 512.000000 512.000000"><path d="M253.5 28.8c-1.6.1-3.7.6-4.5.9-.8.3-1.8.5-2.2.5-.5-.1-.8.5-.8 1.3s-.7 1.5-1.5 1.5-1.4-.6-1.2-1.3c.2-1.4-3.6-1-4.1.4-.2.6-1 .5-1.8-.2-1.1-.9-1.4-.7-1.4.9 0 1.3-.9 2.3-2.2 2.8-1.2.3-2.9 1.3-3.7 2.1-.7.8-2.2 1.2-3.2 1-1.1-.3-2.2-.1-2.5.4-.3.6-2.4 2.2-4.6 3.7-9.7 6.5-12.4 8.2-13.7 8.8-2.6 1.3-17.2 16.7-16.8 17.7.2.6-.7 2.7-2 4.6-1.3 1.8-2.3 4.1-2.3 5 0 1-.4 2.1-.9 2.6-1.1 1.2-5.9 12.6-6.5 15.2-.1 1-.6 2.6-1.1 3.6-.4.9-.5 2.9-.2 4.2.2 1.4 0 2.8-.5 3.1-.6.4-.5 1 .3 1.5 1 .6 1 1.3.2 3.2-1.2 2.5-2.8 15.8-2.6 21.2.1 4.5 2.1 18.8 2.8 20.6.4 1-.3 2.7-1.9 4.4-2.2 2.3-2.6 3.7-2.6 8.7 0 3.2.9 8.4 1.9 11.6 1 3.1 2.2 8.6 2.6 12.2.9 7.6 5 16.6 9.4 20.3 3 2.5 3.1 2.8 2.7 9.4-.2 4.6.2 8.6 1.4 12.3.9 3 2 8.3 2.3 11.7.4 3.4 1.3 7.6 2.2 9.3.9 1.7 1.5 4.3 1.3 5.8-.3 2.3-.9 2.8-4.7 3.4-7 1.2-8.4 2.7-13.6 15-2.7 6.2-7 15.7-9.7 21-4.3 8.7-5.4 10.1-10.5 13.6-7.8 5.3-12.6 7.6-20.3 9.6-3.6 1-8.1 3-10 4.5-1.9 1.5-9.2 5.8-16.2 9.4-7 3.6-13.8 7.3-15 8-1.3.8-6.1 2.9-10.6 4.7-5.7 2.3-9.1 4.2-10.5 6.2-1.2 1.6-3.8 3.4-6 4-4.7 1.4-8.8 5.3-13.5 12.8-1.9 3-5.2 7.4-7.4 9.8-4.8 5.3-4.9 5.6-9.2 23.2-1.9 8-5.5 23-8 33.5-2.5 10.4-5 22.8-5.5 27.5-1.4 11.2-3.2 43.1-2.5 44.2.3.4 104.9.8 232.5.8H487l-.2-4.9c-.1-2.7-.6-4.7-1.1-4.4-.5.3-.7-.1-.6-.8 1.2-5.9-5.5-21.7-12.8-30.3-1.8-2.1-3.8-5.5-4.4-7.5-.6-2-1.7-4.3-2.5-5.1-.7-.8-1.6-3.8-1.9-6.5-.4-2.8-1.1-5.7-1.5-6.5-.4-.8-1-3.5-1.4-5.9-.4-2.4-1.3-5.6-2.1-7.1s-2.4-6.5-3.5-11.1c-1.2-4.6-3-11.1-4.1-14.3-1.9-5.7-2.5-8.1-5-20.6-.6-3-2.3-7.8-3.9-10.5-1.6-2.8-4.3-8.6-6-13-2-5-4.5-9.4-6.8-11.8-3.7-3.8-14.1-9.7-17.1-9.7-.9 0-2.9-.7-4.6-1.6-1.6-.8-7.7-3.4-13.5-5.7-5.8-2.2-12.1-5.3-14-6.8-2.4-1.8-6-3.2-11-4.2-9.1-1.8-19.1-4.6-20.5-5.7-1.7-1.3-13.8-5.9-17-6.4-1.6-.2-5-.5-7.5-.5-3.3-.1-6-1-9.7-3.3-5.1-3.2-5.2-3.5-5.3-7.8 0-6.9 2.7-29.5 4.1-33.7 2-6.3 8.5-20.4 12.3-26.7 2-3.3 3.6-7.1 3.7-8.5.4-8.2.9-11.5 2.3-13 .9-1 1.6-2.2 1.6-2.8 0-.6 2.2-3.3 4.8-6 3.8-3.9 5.2-6.3 6.5-10.9.8-3.2 2.5-9.3 3.6-13.4 2.8-10.1 2.7-11.4-1.5-16-3.4-3.7-4-7-1.5-7 1.3 0 3.1-6.4 3.1-11 .1-1.9.7-4.6 1.5-6 .8-1.4 1.4-3.9 1.5-5.6 0-1.7.7-5 1.5-7.5 3.4-10.3 4.1-29.4 1.5-37.5-.7-1.9-1-4.6-.7-6 .2-1.5 0-2.3-.7-2.2-2.8.6-10.5-9.3-15.9-20.4-4.6-9.4-6.6-12.4-11.4-16.9-6.2-5.7-14.6-9.6-25.1-11.8-3-.6-6.1-1.5-7.1-2.1-1-.5-4-1.2-6.7-1.5-2.7-.4-6.9-1.1-9.4-1.7-2.5-.6-7.6-1-11.4-.9-3.8.1-7.4-.2-8-.7-.6-.4-2.4-.6-4.1-.4zM488 507.7c0 1.2.5 2.5 1 2.8 1.3.8 1.3-1.5 0-3.5-.8-1.2-1-1.1-1 .7z"/></svg>